<svg aria-hidden="true" style="position: absolute; width: 0; height: 0; overflow: hidden;" version="1.1" xmlns="http://www.w3.org/2000/svg" xmlns:xlink="http://www.w3.org/1999/xlink">
<defs>
<symbol id="icon-logo-header" viewBox="0 0 31 32">
<path fill="none" stroke="#fff" style="stroke: var(--color1, #fff)" stroke-linejoin="round" stroke-linecap="round" stroke-miterlimit="4" stroke-width="1.641" d="M24.145 2.188h-17.111c-1.317 0-2.385 1.067-2.385 2.384v17.111c0 1.317 1.068 2.384 2.385 2.384h17.11c1.317 0 2.385-1.067 2.385-2.384v-17.111c-0-1.317-1.068-2.384-2.384-2.384h-0zM10.12 2.188v21.88M21.059 2.188v21.88M4.65 13.128h21.88M4.65 7.658h5.47M4.65 18.599h5.47M21.059 18.599h5.47M21.059 7.658h5.47"></path>
</symbol>
<symbol id="icon-search" viewBox="0 0 32 32">
<path stroke-linejoin="round" stroke-linecap="round" stroke-miterlimit="4" stroke-width="2.2857" d="M14.667 25.333c5.891 0 10.667-4.776 10.667-10.667s-4.776-10.667-10.667-10.667c-5.891 0-10.667 4.776-10.667 10.667s4.776 10.667 10.667 10.667z"></path>
<path stroke-linejoin="round" stroke-linecap="round" stroke-miterlimit="4" stroke-width="2.2857" d="M27.999 28l-5.8-5.8"></path>
</symbol>
</defs>
</svg>